<svg width="248" height="32" viewBox="0 0 248 32" fill="none" xmlns="http://www.w3.org/2000/svg">
<path d="M108.812 4.48L122 0L116.958 8H58L108.812 4.48Z" fill="#E2E2E2"/>
<path d="M4.52273 31H0.795455L9.17045 7.72727H13.2273L21.6023 31H17.875L11.2955 11.9545H11.1136L4.52273 31ZM5.14773 21.8864H17.2386V24.8409H5.14773V21.8864ZM35.7472 23.7614V13.5455H39.1562V31H35.8153V27.9773H35.6335C35.232 28.9091 34.5881 29.6856 33.7017 30.3068C32.8229 30.9205 31.7282 31.2273 30.4176 31.2273C29.2964 31.2273 28.304 30.9811 27.4403 30.4886C26.5843 29.9886 25.91 29.25 25.4176 28.2727C24.9328 27.2955 24.6903 26.0871 24.6903 24.6477V13.5455H28.0881V24.2386C28.0881 25.428 28.4176 26.375 29.0767 27.0795C29.7358 27.7841 30.5919 28.1364 31.6449 28.1364C32.2813 28.1364 32.9138 27.9773 33.5426 27.6591C34.179 27.3409 34.7055 26.8598 35.1222 26.2159C35.5464 25.572 35.7547 24.7538 35.7472 23.7614ZM51.8693 13.5455V16.2727H42.3352V13.5455H51.8693ZM44.892 9.36364H48.2898V25.875C48.2898 26.5341 48.3883 27.0303 48.5852 27.3636C48.7822 27.6894 49.036 27.9129 49.3466 28.0341C49.6648 28.1477 50.0095 28.2045 50.3807 28.2045C50.6534 28.2045 50.892 28.1856 51.0966 28.1477C51.3011 28.1098 51.4602 28.0795 51.5739 28.0568L52.1875 30.8636C51.9905 30.9394 51.7102 31.0152 51.3466 31.0909C50.983 31.1742 50.5284 31.2197 49.983 31.2273C49.089 31.2424 48.2557 31.0833 47.483 30.75C46.7102 30.4167 46.0852 29.9015 45.608 29.2045C45.1307 28.5076 44.892 27.6326 44.892 26.5795V9.36364ZM122.744 31V7.72727H126.142V16.375H126.347C126.544 16.0114 126.828 15.5909 127.199 15.1136C127.57 14.6364 128.085 14.2197 128.744 13.8636C129.403 13.5 130.275 13.3182 131.358 13.3182C132.767 13.3182 134.025 13.6742 135.131 14.3864C136.237 15.0985 137.104 16.125 137.733 17.4659C138.369 18.8068 138.688 20.4205 138.688 22.3068C138.688 24.1932 138.373 25.8106 137.744 27.1591C137.116 28.5 136.252 29.5341 135.153 30.2614C134.055 30.9811 132.801 31.3409 131.392 31.3409C130.331 31.3409 129.464 31.1629 128.79 30.8068C128.123 30.4508 127.6 30.0341 127.222 29.5568C126.843 29.0795 126.551 28.6553 126.347 28.2841H126.062V31H122.744ZM126.074 22.2727C126.074 23.5 126.252 24.5758 126.608 25.5C126.964 26.4242 127.479 27.1477 128.153 27.6705C128.828 28.1856 129.653 28.4432 130.631 28.4432C131.646 28.4432 132.494 28.1742 133.176 27.6364C133.858 27.0909 134.373 26.3523 134.722 25.4205C135.078 24.4886 135.256 23.4394 135.256 22.2727C135.256 21.1212 135.081 20.0871 134.733 19.1705C134.392 18.2538 133.877 17.5303 133.188 17C132.506 16.4697 131.653 16.2045 130.631 16.2045C129.646 16.2045 128.812 16.4583 128.131 16.9659C127.456 17.4735 126.945 18.1818 126.597 19.0909C126.248 20 126.074 21.0606 126.074 22.2727ZM142.503 31V13.5455H145.901V31H142.503ZM144.219 10.8523C143.628 10.8523 143.12 10.6553 142.696 10.2614C142.279 9.85985 142.071 9.38257 142.071 8.82954C142.071 8.26894 142.279 7.79167 142.696 7.39773C143.12 6.99621 143.628 6.79545 144.219 6.79545C144.81 6.79545 145.313 6.99621 145.73 7.39773C146.154 7.79167 146.366 8.26894 146.366 8.82954C146.366 9.38257 146.154 9.85985 145.73 10.2614C145.313 10.6553 144.81 10.8523 144.219 10.8523ZM153.869 7.72727V31H150.472V7.72727H153.869ZM165.963 31.3523C164.243 31.3523 162.762 30.9848 161.52 30.25C160.285 29.5076 159.33 28.4659 158.656 27.125C157.99 25.7765 157.656 24.197 157.656 22.3864C157.656 20.5985 157.99 19.0227 158.656 17.6591C159.33 16.2955 160.27 15.2311 161.474 14.4659C162.687 13.7008 164.103 13.3182 165.724 13.3182C166.709 13.3182 167.664 13.4811 168.588 13.8068C169.512 14.1326 170.342 14.6439 171.077 15.3409C171.812 16.0379 172.391 16.9432 172.815 18.0568C173.24 19.1629 173.452 20.5076 173.452 22.0909V23.2955H159.577V20.75H170.122C170.122 19.8561 169.94 19.0644 169.577 18.375C169.213 17.678 168.702 17.1288 168.043 16.7273C167.391 16.3258 166.626 16.125 165.747 16.125C164.793 16.125 163.959 16.3598 163.247 16.8295C162.543 17.2917 161.997 17.8977 161.611 18.6477C161.232 19.3902 161.043 20.197 161.043 21.0682V23.0568C161.043 24.2235 161.247 25.2159 161.656 26.0341C162.073 26.8523 162.652 27.4773 163.395 27.9091C164.137 28.3333 165.005 28.5455 165.997 28.5455C166.641 28.5455 167.228 28.4545 167.759 28.2727C168.289 28.0833 168.747 27.803 169.134 27.4318C169.52 27.0606 169.815 26.6023 170.02 26.0568L173.236 26.6364C172.978 27.5833 172.516 28.4129 171.849 29.125C171.19 29.8295 170.361 30.3788 169.361 30.7727C168.368 31.1591 167.236 31.3523 165.963 31.3523Z" fill="#2CB67D"/>
<path d="M62.9801 31.3523C61.3438 31.3523 59.9157 30.9773 58.696 30.2273C57.4763 29.4773 56.5294 28.428 55.8551 27.0795C55.1809 25.7311 54.8438 24.1553 54.8438 22.3523C54.8438 20.5417 55.1809 18.9583 55.8551 17.6023C56.5294 16.2462 57.4763 15.1932 58.696 14.4432C59.9157 13.6932 61.3438 13.3182 62.9801 13.3182C64.6165 13.3182 66.0445 13.6932 67.2642 14.4432C68.4839 15.1932 69.4309 16.2462 70.1051 17.6023C70.7794 18.9583 71.1165 20.5417 71.1165 22.3523C71.1165 24.1553 70.7794 25.7311 70.1051 27.0795C69.4309 28.428 68.4839 29.4773 67.2642 30.2273C66.0445 30.9773 64.6165 31.3523 62.9801 31.3523ZM62.9915 28.5C64.0521 28.5 64.9309 28.2197 65.6278 27.6591C66.3248 27.0985 66.84 26.3523 67.1733 25.4205C67.5142 24.4886 67.6847 23.4621 67.6847 22.3409C67.6847 21.2273 67.5142 20.2045 67.1733 19.2727C66.84 18.3333 66.3248 17.5795 65.6278 17.0114C64.9309 16.4432 64.0521 16.1591 62.9915 16.1591C61.9233 16.1591 61.0369 16.4432 60.3324 17.0114C59.6354 17.5795 59.1165 18.3333 58.7756 19.2727C58.4422 20.2045 58.2756 21.2273 58.2756 22.3409C58.2756 23.4621 58.4422 24.4886 58.7756 25.4205C59.1165 26.3523 59.6354 27.0985 60.3324 27.6591C61.0369 28.2197 61.9233 28.5 62.9915 28.5ZM74.9091 31V13.5455H78.1705V16.3864H78.3864C78.75 15.4242 79.3447 14.6742 80.1705 14.1364C80.9962 13.5909 81.9848 13.3182 83.1364 13.3182C84.303 13.3182 85.2803 13.5909 86.0682 14.1364C86.8636 14.6818 87.4508 15.4318 87.8295 16.3864H88.0114C88.428 15.4545 89.0909 14.7121 90 14.1591C90.9091 13.5985 91.9924 13.3182 93.25 13.3182C94.8333 13.3182 96.125 13.8144 97.125 14.8068C98.1326 15.7992 98.6364 17.2955 98.6364 19.2955V31H95.2386V19.6136C95.2386 18.4318 94.9167 17.5758 94.2727 17.0455C93.6288 16.5152 92.8598 16.25 91.9659 16.25C90.8598 16.25 90 16.5909 89.3864 17.2727C88.7727 17.947 88.4659 18.8144 88.4659 19.875V31H85.0795V19.3977C85.0795 18.4508 84.7841 17.6894 84.1932 17.1136C83.6023 16.5379 82.8333 16.25 81.8864 16.25C81.2424 16.25 80.6477 16.4205 80.1023 16.7614C79.5644 17.0947 79.1288 17.5606 78.7955 18.1591C78.4697 18.7576 78.3068 19.4508 78.3068 20.2386V31H74.9091ZM110.543 31.3523C108.906 31.3523 107.478 30.9773 106.259 30.2273C105.039 29.4773 104.092 28.428 103.418 27.0795C102.743 25.7311 102.406 24.1553 102.406 22.3523C102.406 20.5417 102.743 18.9583 103.418 17.6023C104.092 16.2462 105.039 15.1932 106.259 14.4432C107.478 13.6932 108.906 13.3182 110.543 13.3182C112.179 13.3182 113.607 13.6932 114.827 14.4432C116.046 15.1932 116.993 16.2462 117.668 17.6023C118.342 18.9583 118.679 20.5417 118.679 22.3523C118.679 24.1553 118.342 25.7311 117.668 27.0795C116.993 28.428 116.046 29.4773 114.827 30.2273C113.607 30.9773 112.179 31.3523 110.543 31.3523ZM110.554 28.5C111.615 28.5 112.493 28.2197 113.19 27.6591C113.887 27.0985 114.402 26.3523 114.736 25.4205C115.077 24.4886 115.247 23.4621 115.247 22.3409C115.247 21.2273 115.077 20.2045 114.736 19.2727C114.402 18.3333 113.887 17.5795 113.19 17.0114C112.493 16.4432 111.615 16.1591 110.554 16.1591C109.486 16.1591 108.599 16.4432 107.895 17.0114C107.198 17.5795 106.679 18.3333 106.338 19.2727C106.005 20.2045 105.838 21.2273 105.838 22.3409C105.838 23.4621 106.005 24.4886 106.338 25.4205C106.679 26.3523 107.198 27.0985 107.895 27.6591C108.599 28.2197 109.486 28.5 110.554 28.5ZM179.46 31.2159C178.839 31.2159 178.305 30.9962 177.858 30.5568C177.411 30.1098 177.188 29.572 177.188 28.9432C177.188 28.322 177.411 27.7917 177.858 27.3523C178.305 26.9053 178.839 26.6818 179.46 26.6818C180.081 26.6818 180.616 26.9053 181.062 27.3523C181.509 27.7917 181.733 28.322 181.733 28.9432C181.733 29.3598 181.627 29.7424 181.415 30.0909C181.21 30.4318 180.938 30.7045 180.597 30.9091C180.256 31.1136 179.877 31.2159 179.46 31.2159ZM193.636 31.3523C191.947 31.3523 190.492 30.9697 189.273 30.2045C188.061 29.4318 187.129 28.3674 186.477 27.0114C185.826 25.6553 185.5 24.1023 185.5 22.3523C185.5 20.5795 185.833 19.0152 186.5 17.6591C187.167 16.2955 188.106 15.2311 189.318 14.4659C190.53 13.7008 191.958 13.3182 193.602 13.3182C194.928 13.3182 196.11 13.5644 197.148 14.0568C198.186 14.5417 199.023 15.2235 199.659 16.1023C200.303 16.9811 200.686 18.0076 200.807 19.1818H197.5C197.318 18.3636 196.902 17.6591 196.25 17.0682C195.606 16.4773 194.742 16.1818 193.659 16.1818C192.712 16.1818 191.883 16.4318 191.17 16.9318C190.466 17.4242 189.917 18.1288 189.523 19.0455C189.129 19.9545 188.932 21.0303 188.932 22.2727C188.932 23.5455 189.125 24.6439 189.511 25.5682C189.898 26.4924 190.443 27.2083 191.148 27.7159C191.86 28.2235 192.697 28.4773 193.659 28.4773C194.303 28.4773 194.886 28.3598 195.409 28.125C195.939 27.8826 196.383 27.5379 196.739 27.0909C197.102 26.6439 197.356 26.1061 197.5 25.4773H200.807C200.686 26.6061 200.318 27.6136 199.705 28.5C199.091 29.3864 198.269 30.0833 197.239 30.5909C196.216 31.0985 195.015 31.3523 193.636 31.3523ZM211.793 31.3523C210.156 31.3523 208.728 30.9773 207.509 30.2273C206.289 29.4773 205.342 28.428 204.668 27.0795C203.993 25.7311 203.656 24.1553 203.656 22.3523C203.656 20.5417 203.993 18.9583 204.668 17.6023C205.342 16.2462 206.289 15.1932 207.509 14.4432C208.728 13.6932 210.156 13.3182 211.793 13.3182C213.429 13.3182 214.857 13.6932 216.077 14.4432C217.296 15.1932 218.243 16.2462 218.918 17.6023C219.592 18.9583 219.929 20.5417 219.929 22.3523C219.929 24.1553 219.592 25.7311 218.918 27.0795C218.243 28.428 217.296 29.4773 216.077 30.2273C214.857 30.9773 213.429 31.3523 211.793 31.3523ZM211.804 28.5C212.865 28.5 213.743 28.2197 214.44 27.6591C215.137 27.0985 215.652 26.3523 215.986 25.4205C216.327 24.4886 216.497 23.4621 216.497 22.3409C216.497 21.2273 216.327 20.2045 215.986 19.2727C215.652 18.3333 215.137 17.5795 214.44 17.0114C213.743 16.4432 212.865 16.1591 211.804 16.1591C210.736 16.1591 209.849 16.4432 209.145 17.0114C208.448 17.5795 207.929 18.3333 207.588 19.2727C207.255 20.2045 207.088 21.2273 207.088 22.3409C207.088 23.4621 207.255 24.4886 207.588 25.4205C207.929 26.3523 208.448 27.0985 209.145 27.6591C209.849 28.2197 210.736 28.5 211.804 28.5ZM223.722 31V13.5455H226.983V16.3864H227.199C227.563 15.4242 228.157 14.6742 228.983 14.1364C229.809 13.5909 230.797 13.3182 231.949 13.3182C233.116 13.3182 234.093 13.5909 234.881 14.1364C235.676 14.6818 236.263 15.4318 236.642 16.3864H236.824C237.241 15.4545 237.903 14.7121 238.812 14.1591C239.722 13.5985 240.805 13.3182 242.062 13.3182C243.646 13.3182 244.938 13.8144 245.938 14.8068C246.945 15.7992 247.449 17.2955 247.449 19.2955V31H244.051V19.6136C244.051 18.4318 243.729 17.5758 243.085 17.0455C242.441 16.5152 241.672 16.25 240.778 16.25C239.672 16.25 238.812 16.5909 238.199 17.2727C237.585 17.947 237.278 18.8144 237.278 19.875V31H233.892V19.3977C233.892 18.4508 233.597 17.6894 233.006 17.1136C232.415 16.5379 231.646 16.25 230.699 16.25C230.055 16.25 229.46 16.4205 228.915 16.7614C228.377 17.0947 227.941 17.5606 227.608 18.1591C227.282 18.7576 227.119 19.4508 227.119 20.2386V31H223.722Z" fill="#E2E2E2"/>
</svg>
